/* XPM */
static char *result[] = {
/* columns rows colors chars-per-pixel */
"64 64 5 1 ",
"  c black",
". c #003700",
"X c #004000",
"o c #008000",
"O c #22B14C",
/* pixels */
"..........              ....OOOOOO..........                ..O ",
"..........         ......OOOOOOOOOOX............   ...     ..OOO",
"............     ...XXXXXOOOOOOOOOO.XX......................OOOO",
"........XOO...  ..XXXXXXXOOOOOOOOOO.XXXX.........OOOOOOO..XOOOOO",
".......XXXOOO....XXXXXXXOOOOOOOOOOO.X..X........OOOOOOOXXXXOOOOO",
"......XXXOOOOO..XXXXXXXXOOOOOOOOOOO.X......X....OOOOOOXXXXOOOOOO",
".....XXXXXXOOO.XXXXXXXXOOOOOOOOOOOO.X.X..........OOOOOXX..OOOOO ",
".....XXXXXXXX...XXXXXXXXOOOOOOOOOOO...XX......X...OOO.X...OOOO  ",
".....XX...........XXXXXXXXOXXXXXXOO.XXX..............X....OOO   ",
"...XXXXOOOOOOO.....XXXXXXXXXXXXXXXO..XX..................XOOOO  ",
"..XXXXXOOOOOOOO.....XXXXXXXXXXXXXX..OOOOOOOOOOO..XXXXXXXXOOOOO  ",
"..XXXXXOOOOOOO.XXOO.XXXXXXXXXXX....OOOOOOOOOOOO.....XXXXOOOOOO  ",
"..XXXXXOOOOOO.XXOOO..XXXXXXXX..OOO.OOOOOOOOOOOOO......XXOOOOO   ",
"..XXXXXXOOXOO.XXOOOO.XXXXXXX..OOOO.XOOOOOOOOOOOOO..XX....OOO... ",
"....XXXXXXX.XXXOOOOOOXXXXXX.OOOOOX.XOOOOOOOOOOOOOO..XXXX....OOO ",
".XX...XXX...XXOOOOOOOO.XX..OOOOOXX.XXOOOOOOOOOOOOOO.XXXXXOOOOOO ",
"..XXX.....XXXXOOOOOOOO...OOOOOXXXX.XXXOOOOOOOOOOOOOO.XXXXOOOOOO ",
"..XXXOOO..XXXOOOOOOOOOOOOOOOOXXXX..XX.....OOOOOOOOOO..XXXOOOOO  ",
"..XXOOOOO..XXXXXOOOOOOOOOOOOXXXXX.XXX.XO...OOOOOOOOOO.XXXXOOOO  ",
"..XXOOOOOO.XXXXXXOOOOOOOOOOXXXXXX.XX..XOO..OOOOOOOOOO..XXXXOOO  ",
"..XXOOOOOO..XXXXXXOXXXOOOOXXXXXX..XX.XOOOO...OOOOOOOOO.XXXXXOOO ",
"..XXOOOOOOO.XXXXXXXXXXXXXX...XXX.XXX.XXOOOO..OOOOOOOOO..XXXXOOOO",
"..XXXOOOOOO..XXXXXXXXXXXX.....X..XXX..XXOOOO..OOOOOOOOX..XXXXXOO",
"..XXXXOOOOO...XXXXXXXXXXX........XXXX.XXXXXXX..XOOOOOXXX.XXXXXXX",
"...XXXOOOOO.O..XXXXXXXXXX.........XXX..XXXXXX..XXXXXXXXX.XXXXXXX",
"...XXXXOOO..OO....XXXX.XX..........XXX........XXXXXXXXXX..XXXXXX",
"...XXXXXXO.OOOOOO.........oooooo....XXXXXXXXXXXXXXXXXXXXX.XXXXXX",
"....XXXXX.XOOOOOOOOOOO.XXooooooooo..XXXXXXXXXXXXXXXXXXXXX..XXXXX",
"....XXXX..XXOOOOOOOOOO.XXoooooooooo............................X",
"....XXXX.XXXOOOOOOOOOO.XXoooooooooo.O.OOOOOOOO..XXXXXXXXXXXXXX. ",
"....XX.XXXXXOOOOOOOOOO.XXXooooooooo.OOOOOOOOOO.XXXXXXXXXXXOOXX  ",
"....XX..XXXXOOOOOOOOOOO.XXooooooooo..OOOOOOOO..XXXXOOOOOOOOOOO  ",
"....X..XXXXXXOOOOOOOOOO.XXXoooooooo..XXOOOOOOO.XXXOOOOOOOOOOOO  ",
"........XXXXXOOOOOOOOOO.XXXXooooooo..XXXOOOOOO..XXOOOOOOOOOOOO  ",
".....XX.XXXXXOOOOOOOOOO.XXXXXooooooo.XXXXXOOOOO.XXXOOOOOOOOOO   ",
".....XX.XXXXXXOOOOOOOOO.XXXXXXXooooo..XXXXXOOOO..XXXOOOOOOOOO   ",
".....XX..XXXXXXOOOOOOOO..XXXXXXXooooX.XXXXXOOOOO.XXXOOOOOOOO    ",
".....XXX.XXXXXXXOOOOOOOO.XXXXXXXXXXXX.XXXXXXXXXX.XXXOOOOOOOO    ",
"......XX..XXXXXXXXOOOOOO.XXXXXXXXXXXX.XXXXXXXXXX.XXXOOOOOOO     ",
"......XXX.XXXXXXXXXXOOOO...XXXXXXXXX.....XXXXXX.XXXXXOOOOOO     ",
"......XXX..XXXXXXXXXXXXXXX.XXXXXXX.......XXXXXX.XXXXXOOOOOOO    ",
".......XXX..XXXXXXXXXXXXXXXXXXXXX.........XXXX.XXXXXXXXXXXXX    ",
".......XXXX..XXXXXXXXXXXXXXXXXXXXX........XXX..XXXXXXXXXXXXX    ",
".......XXXXX..XXXXXXXXXXXXXXXXXXX..................XXXXXXX...   ",
".......XXXXX...XXXXXXXXXXXXXXX......OO.....................     ",
"........XXXXX....XXXXXXXXXX....OOOOOOOOOO.X..............OOOO   ",
"........XXXXX.....XXXXXX....XXOOOOOOOOOOO.X..........XXOOOOOOO  ",
".........XXXX.......XX...XXXXXXOOOOOOOOOO.XX.........XXOOOOOOO  ",
".........XXXXXXOOOO..X.XXXXXXXXOOOOOOOOOO.XXX.........XOOOOOO   ",
"..........XXX.XOOOOO...XXXXXXXXOOOOOOOOOO.XXXX.XXX....XXXOOO    ",
"...........X..XOOOOOOO..XXXXXXXXOOOOOOOOO.XXXX..OXX...XXXXXXX   ",
".........X..XXXXXOOOOOO..XXXXXXXXOOOOOOOO.XXXXX.OOOX...XXXXX    ",
".........X..XXXXOOOOOOOO.XXXXXXXXXOOOOOOX.XXXXX..OOOOX...XXXX   ",
".........X...XXXOOOOOOOO..XXXXXXXXXOOXXXX.XXXXXX.OOOOXX...XXX   ",
"..........XX..XXOOOOOOOOO..XXXXXXXXXXXXXX.XXXXXX.OOOOOX......   ",
"...........XX..XXOOOOOOOOO.XXXXXXXXXXXXXX.XXXXXX..OOOOOXX....   ",
"...........XXX..XXXOOOOOOO..XXXXXXXXXXXXX.XXXXXXX.OOOOOOXX...   ",
"...........XXXX..XXOOOOOOOO.XXXXXXXXXXXXX.XXXXXXX..OOOOOOX....  ",
"............XXXX.XXXOOOOOOX.XXXXXXXXXXXXX.XXXXXXXX.OOOOOOX....  ",
".............XXX..XXXXXXXXX.XXXXXXXXXXXXX.XXXXXXXX..OOOOOXX...  ",
".............XXXX..XXXXXXXX.XXXXXXXXXXXXX.XXXXXXXXX.OOOOOO....  ",
"..............XXXX.XXXXXXXX..XXXXXXXXXXXX.XXXXXXXXX..OOOO.....  ",
"..............XXXX..XXXXXXXX.XXXXXXXXXXXX.XXXXXXXXXX.OOOO....   ",
"..............XXXXX..XXXXXXX.XXXXXXXXXXXX.XXXXXXXXXX.OOOO....   "
};
