/* XPM */
static char *result[] = {
/* columns rows colors chars-per-pixel */
"64 64 5 1 ",
"  c black",
". c #003700",
"X c #004000",
"o c #008000",
"O c #22B14C",
/* pixels */
"                                                                ",
"                                                                ",
"                                                                ",
"                                                                ",
"                                                                ",
"                                                                ",
"                    OOOOOOOOOOOOO                               ",
"                   OoooooooooOOOOO                              ",
"                  OOoooooooooooOOOO                             ",
"                  OOXXOXXXooooooOOOO                            ",
"                  Xo     XXXoooooOOO                            ",
"                  X      XXoooooooOOO                           ",
"                         ............                           ",
"                         .XX......XXXX                          ",
"                       ...XXX........X                          ",
"                       .XXXXXXXXXXXXXX                          ",
"                      XXXXooooooooooOO                          ",
"              OOOOOOOOOOOOOOOOoooooOOO                          ",
"              ooooooooooooooOOOOOOOOOOOOOOOOO                   ",
"                      ......ooooooooooooooooo                   ",
"                      ...............                           ",
"                     .........OOO....OOO                        ",
"                     XXXXXXXXOo OOOOO O O                       ",
"                      .......O   O..OO OO                       ",
"                      .......OO oO..O O O                       ",
"                       .......OOO....OOO                        ",
"                       ..............                           ",
"                        .XXXXOOOOO..                            ",
"                         XXXXOOOOOOO                            ",
"                        XXXXooooooOOO                           ",
"                      XXXXXooooooOOooO                          ",
"                     XXXXooooooooOOOoOO                         ",
"                    XXXXooooooooOOXOoOO                         ",
"                    XXXoooooooooOXXOooOO                        ",
"                   XXXoooooooooOOXXOoooOO                       ",
"                   XXXoooooooooOOXXOoooOOO                      ",
"                   XXooooooooooOOXXOOoooOO                      ",
"                   XXooooooooooOOXXOOooooO                      ",
"                  XXoooooooooooOOXXOOooooO                      ",
"                  XXoooooooooooOOXXOOooooO                      ",
"                  XXoooooooooooOOXXOOooooO                      ",
"                  XXoooooooooooOOXXOOooooO                      ",
"                  XXooooooooooOOOXXOOooooO                      ",
"                  XXooooooooooOOOXXOOOoooO                      ",
"                  XXooooooooooOOXXXXOOoooO                      ",
"                  XXooooooooooOOXXXXOOoooO                      ",
"                  XXoooooooooOOXXXXXOOoooO                      ",
"                  XXoooooooooOOXXXXXXOOooO                      ",
"                  XXooooooooOOXXXXXXXOOOoO                      ",
"                  XXoooooooOOOXXXXXXXXOOoO                      ",
"                  XXooooooOOOOXXXXXXXXOOoO                      ",
"                  XXoooooOOOOXXXXXXXXXOOoO                      ",
"                  XXoooooOOOOXXXXXXXXXOOoO                      ",
"                  XXooooOOOOXXXXXXXXXXOOOo                      ",
"                  XXoooOOOOOXXXXXXXXXXXOOo                      ",
"                   XoOOOOOXXXXXXXXXXXXXOOO                      ",
"                   XOOXXXXXXXXXXXXXXXXXOOO                      ",
"                   XXXXXXXXXXXXXXXXXXXX.OO                      ",
"                      XXXX         XXXX                         ",
"                      ......       ......                       ",
"                      ......       ......                       ",
"                                                                ",
"                                                                ",
"                                                                "
};
