/* XPM */
static char *result[] = {
/* columns rows colors chars-per-pixel */
"64 64 5 1 ",
"  c black",
". c #003700",
"X c #004000",
"o c #008000",
"O c #22B14C",
/* pixels */
"                                                                ",
"                                                                ",
"                                                                ",
"                         .........                              ",
"                        ...oooOOOO.                             ",
"                       ....oooOOOOO..                           ",
"                       ...ooooOOOOO..                           ",
"                       ....oooOOOOO..                           ",
"                       ....oooOOOOO..                           ",
"                        .....ooooO.                             ",
"                         .........                              ",
"                    ...XXXXX.....XXXXOOO                        ",
"                    ...XXXXX.....XXXXOOO                        ",
"                     ....XXX.....XXOOO                          ",
"                        .XXX.....XOOO                           ",
"                        .XXXXXXXXXO                             ",
"                        .XXXXXXXXXO                             ",
"                        .XXXXXXXXXO                             ",
"                       ..XXXXXXXX.OOO                           ",
"                     ....XXXXXXXX..OOO                          ",
"                    ....XXXXXXXXX....OOO                        ",
"                 ....XX.XXXXXXXXX.....OO                        ",
"               ......XX.XXXXXXXXXX....OO                        ",
"              ...oOO.XX.XXXXXXXXXXX....O                        ",
"              ..OOO .XX.XXXXXXXXXXXX...O                        ",
"             ..oOO  .XX.XXXXXXXXXXXXX..O                        ",
"             .OOO   .XX.XXXXXXXXXXXXXX.O                        ",
"             .oOO   .XX.XXXXXXXXXXXXXX.O                        ",
"             .oO    ....XXXXXXXXXXXXXX.O                        ",
"             .oO    ...XXXXXooXXXXXXXX.O                        ",
"             .oO    ...XXooooooooXXXXX.O                        ",
"             .oO    ...XooooooooooXXXX.O                        ",
"             .oO    ...XooooooooooXXXX.O                        ",
"             .oO    .XXoooo..X.ooooXXX.O                        ",
"             .oO    .ooooXXX.XXXXXoooo.O                        ",
"             .oOO   ooooXXXX.....Xoooooo                        ",
"             .ooO   ooooX.oooooooooooooo                        ",
"             ..oOOO ooooX.oooooooooooooo                        ",
"              ...oOOooooX.oooooooooooooo                        ",
"                ....ooooX.ooXXXXXXoooooo                        ",
"                 ...ooooX..oooXXXooooooo                        ",
"                    ooooXX..ooXXXooooooo                        ",
"                    oooooXXXX...Xooooo.O                        ",
"                    .oooooo....ooooooX.O                        ",
"                    ...ooooooooooooXXX.O                        ",
"                    ...XooooooooooXXXX.O                        ",
"                    ...XooooooooooXXXX.O                        ",
"                    ...XXooooooooXXXXX.O                        ",
"                    ...XXXXXXXXXXXXXX..O                        ",
"                    ...XXXXXXXXXXXXXX..O                        ",
"                    ...XXXXXXXXXXXXXX..O                        ",
"                    ...XXXXXXXXXXXXXX..O                        ",
"                    ...XXXXXXXXXXXXXX..O                        ",
"                    ...XXXXXXXXXXXXXX..O                        ",
"                    ....XXXXXXXXXXXXX..O                        ",
"                     ....XXXXXXXXXXX...                         ",
"                     ....XXXXXXXXXX...                          ",
"                       .....XXXXXX...                           ",
"                         ...XX......                            ",
"                                                                ",
"                                                                ",
"                                                                ",
"                                                                ",
"                                                                "
};
