/* XPM */
static char *result[] = {
/* columns rows colors chars-per-pixel */
"64 64 5 1 ",
"  c black",
". c #003700",
"X c #004000",
"o c #008000",
"O c #22B14C",
/* pixels */
"                                                                ",
"                                                                ",
"                                                                ",
"                                                                ",
"                                                                ",
"                                                                ",
"                                                                ",
"                                                                ",
"                                                                ",
"                                                                ",
"                                                                ",
"                                                                ",
"                                          oooo                  ",
"                         XXXXXoooO       OOOOO.                 ",
"                        XXXXXXXXXoO      OOOOO.                 ",
"                       XXXXXXXXXXXoO     OOOOO.                 ",
"                      XXXXXXXXXXXXXOO     OOOo                  ",
"                     XXXXXXXXXXXXXXooO                          ",
"               XXXXXXXXXXXXXXXXXXXXXoO  o  oo  o                ",
"              XXXXXXXXXXXXXOOOOOXXXXXo  XX XX XX                ",
"             XXXXX   XXXXXOOOOOOOXXXXX   XXXXXX                 ",
"           XXXXXXXXX X.XXXOOXXXOOXXXXX    XXXX                  ",
"           oo oo ooo ..XXXOOXXXXOXXXXXXXXXXXXX                  ",
"              OO     .XXXXOOXXXXXXXXXXXXXXXXX                   ",
"             OOOo    ..XXXOOXXXXXXXXXXXXXXXX                    ",
"            OOOOOo   ..XXOOOOOOOOOXXXX                          ",
"            OOOOOo   ..XXOOOOOOOOOXXXX                          ",
"             OOOo    ..XXOOOOOOOOOXXXX                          ",
"           oo ooo oo ..XXOOOOOOOOOXXXX                          ",
"            XX .. .  ..XXOOOOOOOOOXXXX                          ",
"            XXXXXXX  ..XXOOOOOOOOOXXXX                          ",
"             XXXX    .XXXOOOOOOOOOXXXX                          ",
"              XXX.....XXXXXXXXXXXXXXXX                          ",
"              XXXX...XXXXXXXXXXXXXXXXX                          ",
"               XXXXXXXXXXXXXXXXXXXXXXX                          ",
"                XXXXXXXXXXXXXXXXXXXXXX                          ",
"                     XXXXXXXXXXXXXXXXX                          ",
"                     XXXXXXXXXXXXXXXXX                          ",
"                     XXXXXXXXXXXXXXXXX                          ",
"                     XXXXXXXXXXXXXXXXX                          ",
"                     XXXXXXXXXXXXXXXXX                          ",
"                     XXXXXXXXXXXXXXXXX                          ",
"                     XXXXXXXXXXXXXXXXX                          ",
"                    XXXXXXXXXXXXXXXXXXX                         ",
"                   XXXXXXXXXXXXXXXXXXXXX                        ",
"                  XXXXXXXXXXXXXXXXXXXXXXX                       ",
"                 XXXXXXXXXXXXXXXXXXXXXXXXX                      ",
"                XXXXXXXXXXXXXXXXXXXXXXXXXXX                     ",
"               XXXXXXXXXXXXXOOOXXXXXXXXXXXXX                    ",
"               XXXXXXXXXXXXXOOOXXXXXXXXXXXXX                    ",
"               XXXXXXXXXXXOOOOOOOXXXXXXXXXXX                    ",
"               XXXXXXXXXXXOOOOOOOXXXXXXXXXXX                    ",
"               XXXXXXXXXOOOOOOOOOOOXXXXXXXXX                    ",
"               XXXXXXXXXOOOOOOOOOOOXXXXXXXXX                    ",
"               XXXXXXXOOOOOOoooOOOOOOXXXXXXX                    ",
"               XXXXXXXOOOOOOoooOOOOOOXXXXXXX                    ",
"               XXXXXXXXXOOOOoooOOOOXXXXXXXXX                    ",
"               XXXXXXXXXOOOOoooOOOOXXXXXXXXX                    ",
"               XXXXXXXOOOOOOoooOOOOOOXXXXXXX                    ",
"               XXXXXXXOOOOOOoooOOOOOOXXXXXXX                    ",
"               XXXXXXXXXOOOOoooOOOOXXXXXXXXX                    ",
"               XXXXXXXXXOOOOoooOOOOXXXXXXXXX                    ",
"               XXXXXXXOOOOOOoooOOOOOOXXXXXXX                    ",
"               XXXXXXXOOOOOOoooOOOOOOXXXXXXX                    "
};
