/* XPM */
static char *result[] = {
/* columns rows colors chars-per-pixel */
"64 64 5 1 ",
"  c black",
". c #003700",
"X c #004000",
"o c #008000",
"O c #22B14C",
/* pixels */
"                                                                ",
"                            XX            OOOOOOOOOO            ",
"                           XXXX         OOO...XX...OO           ",
"              OOO       OOOOOOOO       OO..XXX.X.XX.OO          ",
"             OO OOO    OOXXXXX O     OOO..XOOO..X.XX.OO         ",
"            OO    OOXXOOXXXXXXOO    OO..XXXOOOOX..XOO.O         ",
"            O  OOXXOOOOXXOOXXOO  OOOO.XXXXOOOOOO.OOOOOOO        ",
" .......XXXOO   XXXOOXXXXXXX O  OO...XXXXXOOOOOOXOOOOOXO        ",
" .XXXXXXX..OXOOOOOOOXXXXXXX XOOOO..X...XXXOOOOOOXOOOOOOOO       ",
" .X.XXXXOOOOOOXOXXXXXXXXXX XXO.......X.XXX...X...OOOOOOXO       ",
" OOOOOOOOX....XX.....XXXX XXOO..X..XXXXXX...XX.X.X...X.XO       ",
"OOX.X....XXXXXXXX...XXXXXXOO..XX..XXXXXXX...X......X.X.XOO      ",
"OOXXXXXXXXXXX...XOOOOOOX OO..XXX.XXXXXXX....X.X.X.X..X.X.O      ",
" OOO........XX.OOOXX...OOOX.XXX..XXXXX...X..XOOOOOX.XX.X.O      ",
"  XOOXXXXXXX.XXXXX.X..OOXXX.XXX.XXXXX..XXX.OOOOOOOOOXX.X.O      ",
"    OOOO   X.XX....OOOOXXX.XXXX.XX....XXXX.OOOXXOOOOX..X.O      ",
"       OO  XX......O.XXXXXXX.XXX...XXX.XXX.X.XXXXXXX..XX.O      ",
"        OO  XX...OOOX..XX.X..X...XXXXX.XXX.X..XXX....XXX.       ",
"  .OOOO  OO  XXOOO.XXXXX.X..X..XXXXXXX.XXX.XX.....XXXOOOOOOO    ",
"  O.o.OO  O OOOO..XXXX..XX.X..XXXXXXXX.XXOOOOOOOOOOOOO..XXXOO   ",
"  O...OOO.OOO ..XXXXX.XXXXX..XXXXXXOOOOOOO.........XXOOooo..OO  ",
"  O ..OOOO.  ..XXXX..XXXX...XXOOOOOO.......OOOOOoXXOOOoOooo..O  ",
"  OO..OOOOOOOOOOOOOOXXXX..XOOOOXXX.........OOOOOoXXOOOoOooo..OO ",
"   OO.oOOOO...XX.O.OOOOOOOOOXX.....OOOOooooOooooXXOOO...oooo..OO",
"    OOOooOOOOOOOOOOOOO.........OOOo....ooooo..ooXOOO....Xooo.. O",
"      OOooooooooooOOoooooooooo......oo..oo...ooXXOO.....XXXo.. O",
"      .OOoooooooooOOoooooooooo......oo..oo...ooXXOO.....XXXo.. O",
" OOOO  ..OooooooOOOOoOOOOOOOO..oooooooo....ooooXOO....XXXXXo..OO",
" O..OO  .OOOO.oo............oOOOoooooooooooooooXOO...XXXXoXo. O ",
" OO..OO     OO.oooooooooooOo..........ooooOOOooXO.....XXXoXo. O ",
"  O...OO      .ooooooooooO..ooooooooo.ooOOO...oXO....XXXoooo. O ",
"  O....OO     .ooooooooooO..ooooooooo.ooOOO...oXO....XXXoooo.OO ",
"  OO.oo........ooOOOOOooO..ooOOOOOOoo.oo....oooXO......Xoooo.O  ",
"   O...oOOOOOOOOo.......o.oooO......o.oooooooooXO......Xoooo.O  ",
"   OOO..O.oooOOooo.oooooo..oooOOOOO.o.oooooooooXO..XXX.XXoo.OO  ",
"     OOOO...ooOOOooooooooo.....ooo..o.oooooooooXO....XXXXoo.O   ",
"      OOO...ooOOOooooooooo.....ooo..o.oooooooooXO....XXXXoo.O   ",
"   OOOO  ..oo.......oooooooooo.....oooooooOOOooXO.....XXXoX.O   ",
"  OO......ooOOOOooo...oOoooooooooooooooooOO....XOO.XX.XXXo..O   ",
"   O..ooooooo..OOOooo..OOOOOooooooooooooOO.ooooXOO..XXXXooo.O   ",
"   O....oooo.OoOOOO.........OOOOOOOOOooo...ooooXXO...XXXooo.O   ",
"   O....oooo.OoOOOO.........OOOOOOOOOooo...ooooXXO...XXXoooOO   ",
"    OO...oooooo.....ooooooo...............ooooooXOOOXXXXo..O    ",
"     OO..oooooooooooooooooooooooooooooooooooooooXXOOXXXooo.O    ",
"      O .ooo....oooooooooooooooooooooooooooooooooXXOOoooo.OO    ",
"      O .ooo....oooooooooooooooooooooooooooooooooXXOOoooo.O     ",
"      O .ooo.oo.............ooooooooooooooooooooooXXOOOooOO     ",
"      O..oooooo.o.......................oooo..oooooXXOOo.O      ",
"     OO.oooo...OOOOOOOOOOOOOOOOOOOOOOOOOOO........ooXX..OO      ",
"     O..oooo..OO      OOO .........XXXXX.OOOOOOO........O       ",
"    OO..oooo.OO      OOOO...........XXXXXXX....OOOOOOOOOO       ",
"    O .oooo.OO      OOOOXXXXXX.XXXXXXXXXXXX...O                 ",
"  OOO.oooo.OO      OOOO.....XXXXXX.......XXXX.OOO               ",
"OOO.......OO      OOOOXXXXX.XXXXXOOOO..X......XXOOO             ",
" ........OO      OOOOOXXXXX....XXOOOOO..XXXXX..XXXOO.           ",
" OOO...OOO      OOOOOXXXX....XXXOOOOOOO..XXXXX..XXXOOO.         ",
"  .OOOOO       OOOOOOXXX..XXXXXOOOOOOOOOO.XXXXX..XXXXOO.        ",
"               OOOOOXXX..XXXX..OOOOOOOOOOO.XXXXXXXXXXXXOO       ",
"              OOOOOO....XX...OOOOOOOOOOOOO.........XXXXXOO      ",
"             OOOOOOX.XXX...XOO        OOOOOOXXXXXO...XOXXOO     ",
"            OOOOOOXXX....XOOO             .OOOOXXOOOO.OOXXO     ",
"           OOOOOOXXXXXXOOOO                  .OOXXOOO..OOOXO    ",
"           OOOOOXXXOOOOO                       OOXOOOOOOOOXO    ",
"           OOOOOOOOO                            OOOOOOOOOOOO    "
};
