/* XPM */
static char *result[] = {
/* columns rows colors chars-per-pixel */
"64 64 4 1 ",
"  c black",
". c #004000",
"X c #008000",
"o c #22B14C",
/* pixels */
"                                                                ",
"                                                                ",
"                                                                ",
"                                                                ",
"                                                                ",
"                                                                ",
"                                                                ",
"                                                                ",
"                                                                ",
"                                                                ",
"                                                                ",
"                                                                ",
"                                                                ",
"                         .........                              ",
"                        ...........                             ",
"                       .............                            ",
"                      ...............                           ",
"                     .................                          ",
"               .......................  .  ..  .                ",
"              ........................  .. .. ..                ",
"             .....   .......ooo.......   ......                 ",
"           ......... ......ooooo......    ....                  ",
"           .. .. ... .....oo...oo.............                  ",
"                     .....o.....o............                   ",
"                     .....o.....o...........                    ",
"                     ....ooooooooo....                          ",
"                     ....ooooooooo....                          ",
"                     ....ooooooooo....                          ",
"           ..  .. .. ....ooooooooo....                          ",
"            .. .. .  ....ooooooooo....                          ",
"            .......  ....ooooooooo....                          ",
"             ....    ....ooooooooo....                          ",
"              ........................                          ",
"              ........................                          ",
"               .......................                          ",
"                ......................                          ",
"                     .................                          ",
"                     .................                          ",
"                     .................                          ",
"                     .................                          ",
"                     .................                          ",
"                     .................                          ",
"                     .................                          ",
"                    ...................                         ",
"                   .....................                        ",
"                  .......................                       ",
"                 .........................                      ",
"                ...........................                     ",
"               .............ooo.............                    ",
"               .............ooo.............                    ",
"               ...........ooooooo...........                    ",
"               ...........ooooooo...........                    ",
"               .........ooooooooooo.........                    ",
"               .........ooooooooooo.........                    ",
"               .......ooooooXXXoooooo.......                    ",
"               .......ooooooXXXoooooo.......                    ",
"               .........ooooXXXoooo.........                    ",
"               .........ooooXXXoooo.........                    ",
"               .......ooooooXXXoooooo.......                    ",
"               .......ooooooXXXoooooo.......                    ",
"               .........ooooXXXoooo.........                    ",
"               .........ooooXXXoooo.........                    ",
"               .......ooooooXXXoooooo.......                    ",
"               .......ooooooXXXoooooo.......                    "
};
